<?xml version="1.0" encoding="UTF-8" standalone="no"?>
<!-- Created with Inkscape (http://www.inkscape.org/) -->

<svg
   width="210mm"
   height="297mm"
   viewBox="0 0 210 297"
   version="1.1"
   id="svg5"
   xml:space="preserve"
   inkscape:export-filename="Mario-Logo.svg"
   inkscape:export-xdpi="96"
   inkscape:export-ydpi="96"
   inkscape:version="1.2.2 (732a01da63, 2022-12-09)"
   sodipodi:docname="Mario-Logo.svg"
   xmlns:inkscape="http://www.inkscape.org/namespaces/inkscape"
   xmlns:sodipodi="http://sodipodi.sourceforge.net/DTD/sodipodi-0.dtd"
   xmlns:xlink="http://www.w3.org/1999/xlink"
   xmlns="http://www.w3.org/2000/svg"
   xmlns:svg="http://www.w3.org/2000/svg"><sodipodi:namedview
     id="namedview7"
     pagecolor="#ffffff"
     bordercolor="#000000"
     borderopacity="0.25"
     inkscape:showpageshadow="2"
     inkscape:pageopacity="0.0"
     inkscape:pagecheckerboard="0"
     inkscape:deskcolor="#d1d1d1"
     inkscape:document-units="mm"
     showgrid="false"
     inkscape:zoom="1.1893044"
     inkscape:cx="235.01132"
     inkscape:cy="520.89272"
     inkscape:window-width="1920"
     inkscape:window-height="1121"
     inkscape:window-x="-9"
     inkscape:window-y="-9"
     inkscape:window-maximized="1"
     inkscape:current-layer="layer1" /><defs
     id="defs2"><linearGradient
       inkscape:collect="always"
       id="linearGradient957"><stop
         style="stop-color:#b3ff80;stop-opacity:1;"
         offset="0"
         id="stop953" /><stop
         style="stop-color:#8d5fd3;stop-opacity:1"
         offset="1"
         id="stop955" /></linearGradient><linearGradient
       inkscape:collect="always"
       id="linearGradient482"><stop
         style="stop-color:#ffff00;stop-opacity:1;"
         offset="0"
         id="stop478" /><stop
         style="stop-color:#ff8080;stop-opacity:1"
         offset="1"
         id="stop480" /></linearGradient><linearGradient
       inkscape:collect="always"
       xlink:href="#linearGradient482"
       id="linearGradient484"
       x1="71.418434"
       y1="152.59004"
       x2="141.57838"
       y2="153.53391"
       gradientUnits="userSpaceOnUse"
       spreadMethod="pad"
       gradientTransform="matrix(1.9053931,0,0,1.8846931,-105.43569,-139.90747)" /><linearGradient
       inkscape:collect="always"
       xlink:href="#linearGradient957"
       id="linearGradient959"
       x1="447.4501"
       y1="216.15039"
       x2="25.680288"
       y2="221.55026"
       gradientUnits="userSpaceOnUse" /><linearGradient
       inkscape:collect="always"
       xlink:href="#linearGradient957"
       id="linearGradient961"
       gradientUnits="userSpaceOnUse"
       x1="447.4501"
       y1="216.15039"
       x2="25.680288"
       y2="221.55026" /><linearGradient
       inkscape:collect="always"
       xlink:href="#linearGradient957"
       id="linearGradient963"
       gradientUnits="userSpaceOnUse"
       x1="447.4501"
       y1="216.15039"
       x2="25.680288"
       y2="221.55026" /></defs><g
     inkscape:label="Capa 1"
     inkscape:groupmode="layer"
     id="layer1"><ellipse
       style="fill:url(#linearGradient484);fill-opacity:1;stroke-width:0.501389"
       id="path111"
       cx="101.08251"
       cy="149.16035"
       rx="72.236397"
       ry="65.522041" /><path
       style="fill:#000000;stroke-width:0.501389"
       id="path786"
       d="m 16.650655,153.3272 c 5.431992,-0.63351 10.90501,-0.82422 16.368158,-0.99196 4.307301,-0.11516 8.616372,-0.13291 12.924972,-0.12959 2.666166,-0.004 5.332276,0.0151 7.998404,0.0229 1.979866,0.004 3.959727,0.009 5.939587,0.004 1.47818,-0.005 2.956365,-0.004 4.434538,4.9e-4 0,0 -6.073644,-4.36481 -6.073644,-4.36481 v 0 c -1.477791,0.004 -2.955578,0.005 -4.43337,1.8e-4 -1.979063,-0.008 -3.958122,-0.001 -5.937191,-0.001 -2.649886,0.001 -5.299767,0.011 -7.949653,0.0169 -4.274205,0.0294 -8.548194,0.0909 -12.820344,0.23153 -5.527842,0.19211 -11.053148,0.45681 -16.567703,0.88964 0,0 6.116246,4.32487 6.116246,4.32487 z" /><path
       style="fill:#000000;stroke-width:0.501389"
       id="path788"
       d="m 205.26213,155.20717 c 0.1888,0.001 0.72501,0.10688 0.56662,0.005 -2.309,-1.48364 -4.58901,-3.0521 -7.08807,-4.19536 -0.49604,-0.22694 -1.08253,0.15153 -1.62597,0.20897 -0.78286,0.0827 -1.56718,0.15303 -2.35229,0.21206 -2.53598,0.19036 -3.83043,0.22717 -6.42382,0.34319 -7.88368,0.29979 -15.76531,0.60917 -23.65357,0.76897 -4.41488,0.043 -8.83854,0.22956 -13.24479,-0.15133 -1.45868,-0.12605 -3.22777,-0.38099 -4.69006,-0.57834 -2.43804,-0.1506 -4.7562,-0.91629 -7.14,-1.34394 -0.26797,-0.0309 -0.53595,-0.0619 -0.80392,-0.0931 0,0 6.0318,4.46392 6.0318,4.46392 v 0 c 0.26044,0.0429 0.52085,0.0855 0.78128,0.12813 2.33212,0.49899 4.65776,1.00703 7.04297,1.20964 1.62485,0.19644 3.02988,0.38553 4.6732,0.49954 4.38088,0.30389 8.77404,0.0722 13.15862,0.0216 7.90998,-0.17228 15.81484,-0.46672 23.72164,-0.73923 2.99159,-0.11895 5.98366,-0.22173 8.96664,-0.4882 0.56858,-0.0508 2.04122,0.27209 1.70274,-0.18264 -3.43577,-4.61621 -3.03175,-4.49863 -5.72498,-4.47401 0,0 6.10196,4.38515 6.10196,4.38515 z" /><path
       style="fill:#000000;stroke-width:0.501389"
       id="path790"
       d="m 95.631225,55.523368 c 0.0747,3.531047 0.0557,7.063076 0.0454,10.594632 -0.0229,3.338508 0.004,6.67694 -0.001,10.015467 0.008,3.524924 0.008,7.04981 -0.004,10.574713 -0.004,2.747016 -0.0172,5.49397 -0.0217,8.240979 0.0193,1.610156 -0.0659,3.22278 0.0339,4.830641 0,0 6.747465,3.32209 6.747465,3.32209 v 0 c -0.2076,-1.58634 -0.053,-3.194225 -0.10959,-4.790217 -0.005,-2.754275 -0.0172,-5.508524 -0.0217,-8.262798 -0.0115,-3.526469 -0.0115,-7.052899 -0.004,-10.579367 -0.005,-3.339169 0.0209,-6.678241 -0.001,-10.017372 -0.009,-3.51631 -0.0297,-7.03309 0.0454,-10.548892 0,0 -6.706235,-3.379876 -6.706235,-3.379876 z" /><path
       style="fill:#000000;stroke-width:0.501389"
       id="path792"
       d="m 102.95615,239.61733 c -0.0953,-3.91947 -0.0747,-7.84065 -0.0701,-11.76094 -0.005,-3.67886 0.0221,-7.35765 0.0255,-11.03653 -0.005,-3.21621 0.004,-6.43238 -0.001,-9.6486 0.0366,-2.92908 -0.26166,-5.84889 -0.41488,-8.77196 -0.11433,-2.35171 -0.1431,-4.7063 -0.14901,-7.06034 2.4e-4,-0.28609 4.6e-4,-0.5722 5.2e-4,-0.85829 0,0 -6.706595,-3.37663 -6.706595,-3.37663 v 0 c 0.001,0.28835 0.005,0.57671 0.008,0.86508 0.0282,2.37136 0.0666,4.74296 0.17891,7.11218 0.15092,2.9164 0.4489,5.82795 0.45396,8.74899 -0.005,3.21585 0.004,6.43164 -10e-4,9.64748 0.004,3.68744 0.0317,7.37486 0.0255,11.06232 0.004,3.8967 0.0259,7.79438 -0.0701,11.69024 0,0 6.720335,3.387 6.720335,3.387 z" /><g
       style="fill:url(#linearGradient959);fill-opacity:1"
       id="g833"
       transform="matrix(0.10407825,0,0,0.08429457,76.976116,130.87424)"><g
         id="g824"
         style="fill:url(#linearGradient963);fill-opacity:1">
	<path
   d="m 235.735,471.456 c 129.984,0 235.726,-105.752 235.726,-235.726 C 471.461,105.757 365.709,0.005 235.735,0.005 105.761,0.005 0,105.747 0,235.73 0,365.714 105.751,471.456 235.735,471.456 Z M 421.152,193.942 c -19.662,-11.465 -14.746,1.635 -14.746,1.635 0,0 0,0 13.109,11.465 13.111,11.466 22.941,16.39 18.025,32.445 -4.914,16.057 -13.109,1.961 -29.49,15.072 -16.391,13.109 19.66,16.389 21.295,36.049 1.637,19.662 -19.66,9.832 -29.49,29.492 -9.83,19.66 -1.635,40.965 -6.551,58.99 -4.914,18.025 -45.881,42.602 -60.76,50.797 -14.879,8.195 -4.781,-18.025 0,-36.051 4.781,-18.026 -11.34,-37.686 -11.34,-70.457 0,-32.771 -9.83,-22.939 -39.322,-22.939 -29.49,0 -42.6,-16.391 -45.88,-47.518 -3.28,-31.135 24.576,-62.261 37.685,-72.091 13.111,-9.831 31.137,-19.661 49.152,-9.831 18.025,9.831 24.576,19.661 44.236,19.661 19.66,0 19.66,-6.55 31.135,-14.746 11.465,-8.195 -16.391,-18.025 -32.77,-16.313 -16.381,1.712 -13.111,-9.897 -34.406,-18.092 -21.297,-8.195 -29.492,8.195 -36.051,11.465 -6.551,3.28 -29.49,13.11 -31.787,0 -2.285,-13.11 12.117,-14.745 26.871,-14.745 14.746,0 1.635,-11.465 -3.279,-19.661 -4.916,-8.195 -14.746,-8.195 -21.85,-14.592 -7.096,-6.397 8.74,-18.178 25.119,-14.267 16.381,3.911 9.83,15.75 27.855,14.114 18.025,-1.636 0,-18.025 0,-33.899 0,-15.874 19.662,-15.262 32.771,-21.592 13.109,-6.331 29.49,27.635 40.965,41.377 3.797,4.552 9.219,2.534 14.766,-2.113 28.984,33.354 48.367,75.228 53.836,121.338 -23.426,8.76 -21.904,-4.962 -39.098,-14.993 z M 235.735,9.567 c 9.046,0 17.949,0.593 26.718,1.635 -3.213,8.941 -8.436,15.616 -8.436,15.616 0,0 -6.549,21.295 -21.304,22.94 -14.755,1.645 -32.771,0 -40.966,13.11 -8.195,13.11 -6.55,36.051 -19.66,22.94 -13.11,-13.11 -1.635,-14.114 -14.746,-27.54 -13.11,-13.425 -16.39,-13.425 -22.94,-13.425 -1.932,0 -4.122,-3.337 -5.862,-8.214 C 160.468,19.378 196.968,9.567 235.735,9.567 Z M 98.991,55.735 c -0.364,2.362 1.711,5.795 11.781,9.993 19.661,8.195 24.193,24.423 15.138,23.782 -9.056,-0.641 -45.853,4.379 -12.011,14.209 33.851,9.831 31.059,21.353 16.008,26.268 -15.052,4.916 -11.829,-16.361 -15.109,4.944 -3.28,21.305 -6.579,19.67 -17.231,22.95 -10.653,3.28 -30.323,19.67 -30.323,31.136 0,11.465 -6.56,17.882 6.55,27.712 13.11,9.83 -4.103,27.809 -10.299,14.708 -7.44,-15.721 -12.642,-24.395 -20.837,-26.039 -8.195,-1.635 -18.752,11.465 0,24.575 18.752,13.11 19.661,21.305 19.661,31.135 0,9.83 13.569,9.83 23.992,8.195 10.414,-1.635 31.805,26.221 39.14,37.686 7.325,11.467 20.435,22.941 38.46,27.855 18.025,4.916 24.576,16.391 14.746,24.576 -9.83,8.195 -11.465,27.855 -22.94,32.771 -11.475,4.914 -13.11,19.66 -19.661,26.221 -3.844,3.844 -7.573,8.834 -10.691,14.602 -9.782,-5.498 -19.115,-11.705 -27.941,-18.543 -0.268,-1.453 -0.564,-2.926 -0.698,-4.254 -1.635,-16.391 -3.28,-36.051 -13.11,-44.236 C 73.785,357.786 67.226,346.321 63.955,333.21 60.684,320.101 68.87,300.44 62.32,287.329 55.77,274.22 55.77,286.507 42.659,268.081 29.549,249.653 29.549,249.643 21.354,234.898 16.975,227.009 14.02,214.435 12.203,201.19 21.296,142.084 53.387,90.466 98.991,55.735 Z"
   id="path822"
   style="fill:url(#linearGradient961);fill-opacity:1" />
</g></g></g></svg>
